<svg xmlns="http://www.w3.org/2000/svg" xml:space="preserve" width="1500" height="1500" fill="#fff" stroke="#fff" data-id="lg_1eRUWuBejsJnV7chvP" data-version="1"><path fill="#f9f9f9" stroke="transparent" d="M0 0h1500v1500H0z"/><g data-padding="20"><path stroke-width="1.81889" d="M283.854 697.352v93.054h23.79q9.695 0 18.244-2.455 8.549-2.474 14.988-8.022 6.42-5.547 10.13-14.55 3.693-8.986 3.693-21.846 0-11.986-3.346-20.717-3.347-8.712-9.422-14.351t-14.806-8.367q-8.73-2.746-19.48-2.746Zm-14.806 106.623V683.783h38.597q14.278 0 25.828 3.528 11.532 3.529 19.826 10.932 8.276 7.403 12.768 18.68t4.493 26.61q0 15.515-4.93 26.883t-13.386 18.844q-8.458 7.494-19.917 11.114-11.46 3.6-24.682 3.6Zm123.193 0v-88.816l14.097-1.583v90.399Zm-2.292-114.026q0-4.038 2.729-6.785 2.746-2.728 6.784-2.728 4.238 0 7.148 2.728 2.91 2.747 2.91 6.785 0 4.056-2.91 6.784-2.91 2.747-7.148 2.747-4.038 0-6.784-2.747-2.729-2.728-2.729-6.784Zm41.944 114.026v-72.61q0-5.984-1.055-14.442l13.223-1.764 1.928 11.095q4.766-3.51 9.35-6.166 4.583-2.638 9.876-4.584 5.275-1.928 10.75-1.928 8.803 0 13.914 3.074 5.111 3.092 7.585 10.495 7.221-5.111 15.06-9.35 7.84-4.219 16.298-4.219 6.53 0 11.113 1.673t7.403 5.548 4.056 10.222q1.219 6.348 1.219 15.861v57.095h-14.097v-55.513q0-5.274-.163-9.421-.182-4.148-1.237-7.058t-3.438-4.492-6.784-1.583q-4.057 0-7.676 1.146-3.602 1.146-7.494 3.256-3.874 2.128-11.968 8.64v65.025H485.64v-55.513q0-5.274-.164-9.421-.181-4.148-1.236-7.058t-3.438-4.492-6.785-1.583q-4.583 0-9.512 1.946-4.948 1.928-9.35 4.584-4.401 2.637-9.167 6.166v65.37Zm194.912-20.608v-20.099q-3.51.182-6.693.364-3.165.164-6.257.436-3.074.255-5.548.619-12.696 1.582-17.97 5.548-5.293 3.965-5.293 11.368 0 6.166 3.783 9.258 3.801 3.074 9.967 3.074 8.458 0 15.06-2.91 6.621-2.91 12.951-7.658Zm1.6 22.027-1.763-9.695q-8.295 4.765-15.425 7.658-7.13 2.91-15.424 2.91-11.804 0-18.77-5.73-6.949-5.711-6.949-18.934 0-6.876 3.51-11.987 3.53-5.111 9.259-8.549t12.95-5.365q7.221-1.947 14.806-2.474 3.165-.364 8.276-.619 5.11-.272 7.93-.436 0-6.166-.345-11.023-.346-4.838-2.11-8.275t-5.202-5.202-9.786-1.765q-5.111 0-9.858.619-4.766.618-8.458 1.327-4.42.873-8.112 1.928l-2.82-12.15q4.402-1.055 9.513-1.946 4.402-.873 10.222-1.491t12.514-.619q8.986 0 14.533 2.637 5.566 2.638 8.64 7.149 3.092 4.492 4.238 10.222 1.146 5.711 1.146 12.06v42.307q0 2.455.073 5.183.09 2.747.363 5.384.255 2.638.619 5.457Zm87.762-88.126-2.473 12.514q-7.403-2.291-13.133-3.074-5.73-.8-10.477-.8-6.166 0-10.313 3.001-4.147 2.983-4.147 7.749.182 4.238 3.71 7.22 3.53 3.002 8.186 5.385 4.674 2.382 10.404 5.202t10.75 6.348q5.02 3.51 8.203 8.458 3.165 4.929 3.346 11.804-.181 7.403-3.274 12.241-3.074 4.857-7.93 7.749-4.838 2.91-10.477 4.056t-10.568 1.146q-6.347 0-13.132-.691-6.784-.71-14.551-3.002l2.656-12.695q7.93 2.11 14.442 3.092 6.53.964 10.75.964 3.182 0 6.256-.71 3.092-.69 5.548-2.019 2.473-1.327 3.965-3.437 1.51-2.11 1.51-4.766-.182-4.93-3.347-8.367-3.183-3.437-8.203-6.166t-10.75-5.456q-5.73-2.747-10.75-6.348-5.02-3.62-8.366-8.64t-3.347-12.423q0-5.293 2.728-9.422 2.728-4.147 7.057-6.875 4.311-2.729 9.513-4.238 5.202-1.492 10.131-1.492 5.111 0 11.46.782 6.33.8 14.623 2.91Zm23.082 86.707V671.978l14.096-1.582v56.04q5.293-3.529 10.495-6.166t10.66-4.675q5.456-2.019 10.567-2.019 7.239 0 12.077 1.673 4.857 1.674 7.84 5.548 3 3.874 4.329 10.222 1.31 6.348 1.31 15.861v57.095h-14.097v-55.513q0-5.274-.182-9.421-.164-4.148-1.492-7.058t-4.056-4.492-7.657-1.583q-4.584 0-9.877 2.02-5.293 2.036-10.04 4.674-4.766 2.655-9.877 6.166v65.207Zm106.278-43.872q0 17.098 7.657 25.465 7.676 8.367 20.717 8.367 12.86 0 20.081-8.276 7.24-8.294 7.24-24.846 0-17.625-7.677-26.265-7.657-8.64-20.88-8.64t-20.19 8.549q-6.948 8.549-6.948 25.646Zm-14.988-.182q0-13.387 4.238-22.3 4.22-8.894 10.75-14.26 6.511-5.383 14.005-7.584t14.188-2.2q6.347 0 13.841 2.018 7.476 2.037 13.824 7.221 6.348 5.202 10.586 13.933 4.22 8.73 4.22 22.117 0 13.915-4.311 23.082-4.33 9.167-10.84 14.551-6.53 5.366-14.097 7.567-7.585 2.2-14.097 2.2-6.711 0-14.114-2.11t-13.642-7.311q-6.257-5.202-10.404-14.187t-4.147-22.737Zm106.278 84.233v-108.37q0-6.347-.891-18.861l13.041-1.764 1.582 9.512q3.53-2.983 7.33-5.365 3.784-2.383 8.277-4.057t9.603-1.673q7.221 0 13.66 2.456 6.439 2.473 11.277 7.93 4.839 5.475 7.676 14.187 2.82 8.731 2.82 21.427 0 12.86-3.802 21.754-3.784 8.912-9.859 14.46-6.093 5.548-13.75 8.021-7.676 2.456-15.606 2.456-8.458-.164-17.262-2.11v38.251Zm31.358-50.22q7.402 0 12.695-2.637 5.293-2.655 8.731-7.312 3.438-4.674 5.02-10.75 1.583-6.093 1.583-12.968 0-6.166-1.146-12.332t-3.693-11.004q-2.564-4.857-6.802-7.93-4.22-3.093-10.386-3.093-4.584 0-8.64 1.674t-7.657 4.056q-3.62 2.382-6.967 5.365v54.112q1.928.71 4.311 1.328t5.639 1.055q3.274.437 7.312.437Z" font-family="Actor" font-size="96.892"/><g transform="translate(481.796 106.618)scale(2.07353)"><linearGradient id="a" x1="0" x2="1" y1="0" y2="0" fill="#fff" stroke="#fff" gradientUnits="objectBoundingBox"><stop offset="0%" stop-color="#6ee2f5"/><stop offset="100%" stop-color="#6454f0"/></linearGradient><path fill="url(#a)" stroke="none" d="M363.444 415.964c-10.6 0-20.7-4.3-28.1-11.6l11.1 2-27.7-30.6-1.7 41.3 8.5-10.1a49.2 49.2 0 0 0 37.9 18c10.7 0 20.9-3.4 29.5-9.8l-5.4-7.1c-7 5.1-15.3 7.9-24.1 7.9" transform="translate(-44.05 -70.6)"/></g><g transform="translate(507.508 23.262)scale(2.07353)"><linearGradient id="c" x1="0" x2="1" y1="0" y2="0" fill="#fff" stroke="#fff" gradientUnits="objectBoundingBox"><stop offset="0%" stop-color="#6ee2f5"/><stop offset="100%" stop-color="#6454f0"/></linearGradient><path fill="url(#c)" stroke="none" d="M396.844 353.564a49.2 49.2 0 0 0-37.9-18c-10.7 0-20.9 3.4-29.5 9.8l5.4 7.1c7-5.3 15.3-8 24.1-8 10.6 0 20.7 4.3 28.1 11.6l-11.1-2 27.7 30.7 1.7-41.3Z" transform="translate(-56.45 -30.4)"/></g><path fill="transparent" stroke="transparent" stroke-width="1.89" d="M250 651.701h1000V848.3H250z"/></g></svg>