<svg xmlns="http://www.w3.org/2000/svg" xml:space="preserve" width="1500" height="1500" data-id="lg_1eRUWuBejsJnV7chvP" data-version="1"><path fill="#040046" stroke="transparent" d="M0 0h1500v1500H0z"/><g data-padding="20"><g fill="url(#a)" stroke="null" transform="translate(-648.866 -664.053)scale(1.81889)"><linearGradient id="a" x1="0" x2="1" y1="0" y2="0" gradientUnits="objectBoundingBox"><stop offset="0%" stop-color="#6ee2f5"/><stop offset="100%" stop-color="#6454f0"/></linearGradient><path d="M512.796 748.481v51.16h13.08q5.33 0 10.03-1.35 4.7-1.36 8.24-4.41 3.53-3.05 5.57-8 2.03-4.94 2.03-12.01 0-6.59-1.84-11.39-1.84-4.79-5.18-7.89t-8.14-4.6q-4.8-1.51-10.71-1.51Zm-8.14 58.62v-66.08h21.22q7.85 0 14.2 1.94 6.34 1.94 10.9 6.01 4.55 4.07 7.02 10.27t2.47 14.63q0 8.53-2.71 14.78t-7.36 10.36q-4.65 4.12-10.95 6.11-6.3 1.98-13.57 1.98Zm67.73 0v-48.83l7.75-.87v49.7Zm-1.26-62.69q0-2.22 1.5-3.73 1.51-1.5 3.73-1.5 2.33 0 3.93 1.5 1.6 1.51 1.6 3.73 0 2.23-1.6 3.73-1.6 1.51-3.93 1.51-2.22 0-3.73-1.51-1.5-1.5-1.5-3.73Zm23.06 62.69v-39.92q0-3.29-.58-7.94l7.27-.97 1.06 6.1q2.62-1.93 5.14-3.39 2.52-1.45 5.43-2.52 2.9-1.06 5.91-1.06 4.84 0 7.65 1.69 2.81 1.7 4.17 5.77 3.97-2.81 8.28-5.14 4.31-2.32 8.96-2.32 3.59 0 6.11.92t4.07 3.05 2.23 5.62q.67 3.49.67 8.72v31.39h-7.75v-30.52q0-2.9-.09-5.18-.1-2.28-.68-3.88t-1.89-2.47-3.73-.87q-2.23 0-4.22.63-1.98.63-4.12 1.79-2.13 1.17-6.58 4.75v35.75h-7.76v-30.52q0-2.9-.09-5.18-.1-2.28-.68-3.88t-1.89-2.47-3.73-.87q-2.52 0-5.23 1.07-2.72 1.06-5.14 2.52-2.42 1.45-5.04 3.39v35.94Zm107.16-11.33v-11.05q-1.93.1-3.68.2-1.74.09-3.44.24-1.69.14-3.05.34-6.98.87-9.88 3.05-2.91 2.18-2.91 6.25 0 3.39 2.08 5.09 2.09 1.69 5.48 1.69 4.65 0 8.28-1.6 3.64-1.6 7.12-4.21Zm.88 12.11-.97-5.33q-4.56 2.62-8.48 4.21-3.92 1.6-8.48 1.6-6.49 0-10.32-3.15-3.82-3.14-3.82-10.41 0-3.78 1.93-6.59 1.94-2.81 5.09-4.7t7.12-2.95q3.97-1.07 8.14-1.36 1.74-.2 4.55-.34 2.81-.15 4.36-.24 0-3.39-.19-6.06-.19-2.66-1.16-4.55t-2.86-2.86-5.38-.97q-2.81 0-5.42.34-2.62.34-4.65.73-2.43.48-4.46 1.06l-1.55-6.68q2.42-.58 5.23-1.07 2.42-.48 5.62-.82t6.88-.34q4.94 0 7.99 1.45 3.06 1.45 4.75 3.93 1.7 2.47 2.33 5.62.63 3.14.63 6.63v23.26q0 1.35.04 2.85.05 1.51.2 2.96.14 1.45.34 3Zm48.25-48.45-1.36 6.88q-4.07-1.26-7.22-1.69-3.15-.44-5.76-.44-3.39 0-5.67 1.65-2.28 1.64-2.28 4.26.1 2.33 2.04 3.97 1.94 1.65 4.5 2.96 2.57 1.31 5.72 2.86t5.91 3.49q2.76 1.93 4.51 4.65 1.74 2.71 1.84 6.49-.1 4.07-1.8 6.73-1.69 2.67-4.36 4.26-2.66 1.6-5.76 2.23t-5.81.63q-3.49 0-7.22-.38-3.73-.39-8-1.65l1.46-6.98q4.36 1.16 7.94 1.7 3.59.53 5.91.53 1.75 0 3.44-.39 1.7-.38 3.05-1.11 1.36-.73 2.18-1.89.83-1.16.83-2.62-.1-2.71-1.84-4.6-1.75-1.89-4.51-3.39t-5.91-3q-3.15-1.51-5.91-3.49-2.76-1.99-4.6-4.75t-1.84-6.83q0-2.91 1.5-5.18 1.5-2.28 3.88-3.78 2.37-1.5 5.23-2.33 2.86-.82 5.57-.82 2.81 0 6.3.43 3.48.44 8.04 1.6Zm12.69 47.67v-72.57l7.75-.87v30.81q2.91-1.94 5.77-3.39t5.86-2.57q3-1.11 5.81-1.11 3.98 0 6.64.92 2.67.92 4.31 3.05 1.65 2.13 2.38 5.62.72 3.49.72 8.72v31.39h-7.75v-30.52q0-2.9-.1-5.18-.09-2.28-.82-3.88t-2.23-2.47-4.21-.87q-2.52 0-5.43 1.11-2.91 1.12-5.52 2.57-2.62 1.46-5.43 3.39v35.85Zm58.43-24.12q0 9.4 4.21 14 4.22 4.6 11.39 4.6 7.07 0 11.04-4.55 3.98-4.56 3.98-13.66 0-9.69-4.22-14.44-4.21-4.75-11.48-4.75t-11.1 4.7q-3.82 4.7-3.82 14.1Zm-8.24-.1q0-7.36 2.33-12.26 2.32-4.89 5.91-7.84 3.58-2.96 7.7-4.17t7.8-1.21q3.49 0 7.61 1.11 4.11 1.12 7.6 3.97 3.49 2.86 5.82 7.66 2.32 4.8 2.32 12.16 0 7.65-2.37 12.69-2.38 5.04-5.96 8-3.59 2.95-7.75 4.16-4.17 1.21-7.75 1.21-3.69 0-7.76-1.16t-7.5-4.02q-3.44-2.86-5.72-7.8t-2.28-12.5Zm58.43 46.31v-59.58q0-3.49-.49-10.37l7.17-.97.87 5.23q1.94-1.64 4.03-2.95 2.08-1.31 4.55-2.23t5.28-.92q3.97 0 7.51 1.35 3.54 1.36 6.2 4.36 2.66 3.01 4.22 7.8 1.55 4.8 1.55 11.78 0 7.07-2.09 11.96-2.08 4.9-5.42 7.95-3.35 3.05-7.56 4.41-4.22 1.35-8.58 1.35-4.65-.09-9.49-1.16v21.03Zm17.24-27.61q4.07 0 6.98-1.45 2.91-1.46 4.8-4.02 1.89-2.57 2.76-5.91.87-3.35.87-7.13 0-3.39-.63-6.78t-2.03-6.05q-1.41-2.67-3.74-4.36-2.32-1.7-5.71-1.7-2.52 0-4.75.92t-4.21 2.23q-1.99 1.31-3.83 2.95v29.75q1.06.39 2.37.73t3.1.58q1.8.24 4.02.24Z" font-family="Actor" font-size="96.892"/></g><g transform="translate(481.796 106.618)scale(2.07353)"><linearGradient id="b" x1="0" x2="1" y1="0" y2="0" gradientUnits="objectBoundingBox"><stop offset="0%" stop-color="#6ee2f5"/><stop offset="100%" stop-color="#6454f0"/></linearGradient><path fill="url(#b)" d="M363.444 415.964c-10.6 0-20.7-4.3-28.1-11.6l11.1 2-27.7-30.6-1.7 41.3 8.5-10.1a49.2 49.2 0 0 0 37.9 18c10.7 0 20.9-3.4 29.5-9.8l-5.4-7.1c-7 5.1-15.3 7.9-24.1 7.9" transform="translate(-44.05 -70.6)"/></g><g transform="translate(507.508 23.262)scale(2.07353)"><linearGradient id="c" x1="0" x2="1" y1="0" y2="0" gradientUnits="objectBoundingBox"><stop offset="0%" stop-color="#6ee2f5"/><stop offset="100%" stop-color="#6454f0"/></linearGradient><path fill="url(#c)" d="M396.844 353.564a49.2 49.2 0 0 0-37.9-18c-10.7 0-20.9 3.4-29.5 9.8l5.4 7.1c7-5.3 15.3-8 24.1-8 10.6 0 20.7 4.3 28.1 11.6l-11.1-2 27.7 30.7 1.7-41.3Z" transform="translate(-56.45 -30.4)"/></g><path fill="transparent" stroke="transparent" stroke-width="1.89" d="M250 651.701h1000V848.3H250z"/></g></svg>